<svg width="25" height="25" viewBox="0 0 25 25" fill="none" xmlns="http://www.w3.org/2000/svg">
<path d="M0.833333 4.46375H0.951667C1.13356 5.2295 1.54838 5.90849 2.1306 6.39344C2.71281 6.87839 3.42923 7.14166 4.16667 7.14166C4.9041 7.14166 5.62052 6.87839 6.20274 6.39344C6.78495 5.90849 7.19977 5.2295 7.38167 4.46375H24.1667C24.3877 4.46375 24.5996 4.36967 24.7559 4.20222C24.9122 4.03476 25 3.80765 25 3.57083C25 3.33402 24.9122 3.1069 24.7559 2.93944C24.5996 2.77199 24.3877 2.67792 24.1667 2.67792H7.38167C7.19977 1.91216 6.78495 1.23318 6.20274 0.748225C5.62052 0.263273 4.9041 0 4.16667 0C3.42923 0 2.71281 0.263273 2.1306 0.748225C1.54838 1.23318 1.13356 1.91216 0.951667 2.67792H0.833333C0.61232 2.67792 0.400358 2.77199 0.244078 2.93944C0.0877973 3.1069 0 3.33402 0 3.57083C0 3.80765 0.0877973 4.03476 0.244078 4.20222C0.400358 4.36967 0.61232 4.46375 0.833333 4.46375ZM4.16667 1.785C4.4963 1.785 4.81853 1.88974 5.09262 2.08597C5.3667 2.2822 5.58032 2.5611 5.70647 2.88742C5.83261 3.21374 5.86562 3.57281 5.80131 3.91923C5.737 4.26565 5.57827 4.58385 5.34518 4.83361C5.11209 5.08336 4.81512 5.25344 4.49182 5.32235C4.16852 5.39126 3.8334 5.35589 3.52886 5.22073C3.22432 5.08556 2.96402 4.85667 2.78088 4.56299C2.59775 4.26931 2.5 3.92404 2.5 3.57083C2.5 3.0972 2.67559 2.64297 2.98816 2.30806C3.30072 1.97315 3.72464 1.785 4.16667 1.785ZM24.1667 11.6071H24.0483C23.8664 10.8413 23.4516 10.1623 22.8694 9.67739C22.2872 9.19244 21.5708 8.92917 20.8333 8.92917C20.0959 8.92917 19.3795 9.19244 18.7973 9.67739C18.215 10.1623 17.8002 10.8413 17.6183 11.6071H0.833333C0.61232 11.6071 0.400358 11.7012 0.244078 11.8686C0.0877973 12.0361 0 12.2632 0 12.5C0 12.7368 0.0877973 12.9639 0.244078 13.1314C0.400358 13.2988 0.61232 13.3929 0.833333 13.3929H17.6183C17.8002 14.1587 18.215 14.8377 18.7973 15.3226C19.3795 15.8076 20.0959 16.0708 20.8333 16.0708C21.5708 16.0708 22.2872 15.8076 22.8694 15.3226C23.4516 14.8377 23.8664 14.1587 24.0483 13.3929H24.1667C24.3877 13.3929 24.5996 13.2988 24.7559 13.1314C24.9122 12.9639 25 12.7368 25 12.5C25 12.2632 24.9122 12.0361 24.7559 11.8686C24.5996 11.7012 24.3877 11.6071 24.1667 11.6071ZM20.8333 14.2858C20.5037 14.2858 20.1815 14.1811 19.9074 13.9849C19.6333 13.7886 19.4197 13.5097 19.2935 13.1834C19.1674 12.8571 19.1344 12.498 19.1987 12.1516C19.263 11.8052 19.4217 11.487 19.6548 11.2372C19.8879 10.9875 20.1849 10.8174 20.5082 10.7485C20.8315 10.6796 21.1666 10.7149 21.4711 10.8501C21.7757 10.9853 22.036 11.2142 22.2191 11.5078C22.4023 11.8015 22.5 12.1468 22.5 12.5C22.5 12.9736 22.3244 13.4279 22.0118 13.7628C21.6993 14.0977 21.2754 14.2858 20.8333 14.2858ZM24.1667 20.5363H15.715C15.5331 19.7705 15.1183 19.0915 14.5361 18.6066C13.9539 18.1216 13.2374 17.8583 12.5 17.8583C11.7626 17.8583 11.0461 18.1216 10.4639 18.6066C9.88171 19.0915 9.46689 19.7705 9.285 20.5363H0.833333C0.61232 20.5363 0.400358 20.6303 0.244078 20.7978C0.0877973 20.9652 0 21.1924 0 21.4292C0 21.666 0.0877973 21.8931 0.244078 22.0606C0.400358 22.228 0.61232 22.3221 0.833333 22.3221H9.285C9.46689 23.0878 9.88171 23.7668 10.4639 24.2518C11.0461 24.7367 11.7626 25 12.5 25C13.2374 25 13.9539 24.7367 14.5361 24.2518C15.1183 23.7668 15.5331 23.0878 15.715 22.3221H24.1667C24.3877 22.3221 24.5996 22.228 24.7559 22.0606C24.9122 21.8931 25 21.666 25 21.4292C25 21.1924 24.9122 20.9652 24.7559 20.7978C24.5996 20.6303 24.3877 20.5363 24.1667 20.5363ZM12.5 23.215C12.1704 23.215 11.8481 23.1103 11.574 22.914C11.3 22.7178 11.0863 22.4389 10.9602 22.1126C10.8341 21.7863 10.801 21.4272 10.8654 21.0808C10.9297 20.7344 11.0884 20.4161 11.3215 20.1664C11.5546 19.9166 11.8515 19.7466 12.1748 19.6776C12.4982 19.6087 12.8333 19.6441 13.1378 19.7793C13.4423 19.9144 13.7026 20.1433 13.8858 20.437C14.0689 20.7307 14.1667 21.076 14.1667 21.4292C14.1667 21.9028 13.9911 22.357 13.6785 22.6919C13.366 23.0269 12.942 23.215 12.5 23.215Z" fill="black"/>
</svg>
